<svg version="1.1" xmlns="http://www.w3.org/2000/svg" width="400px" height="120px" viewBox="-269.2 -1430.325 6835.849999999999 2209.65"><desc>Created with Snap</desc><defs></defs><g><g transform="matrix(53.175,0,0,53.175,4611.025,-1176.3)"><g transform="translate(0,-1020.3622)"><path style="color: rgb(0, 0, 0); font: medium sans-serif; text-indent: 0px; text-align: start; text-decoration: none solid rgb(0, 0, 0); letter-spacing: normal; word-spacing: normal; text-transform: none; direction: ltr; writing-mode: lr-tb; baseline-shift: baseline; text-anchor: start; white-space: normal; clip-rule: nonzero; display: inline; overflow: visible; visibility: visible; opacity: 1; isolation: auto; mix-blend-mode: normal; color-interpolation: srgb; color-interpolation-filters: linearrgb; fill-opacity: 1; fill-rule: evenodd; stroke: none; stroke-width: 1px; stroke-linecap: butt; stroke-linejoin: miter; stroke-miterlimit: 4; stroke-dasharray: none; stroke-dashoffset: 0; stroke-opacity: 1; color-rendering: auto; image-rendering: auto; shape-rendering: auto; text-rendering: auto;" d="M 15 1 C 12.796783 1 11 2.7968 11 5 C 11 5.6546295 11.174294 6.2621942 11.455078 6.8085938 L 5.1347656 12.226562 C 4.7841998 12.082202 4.4012682 12 4 12 C 2.3490681 12 1 13.3491 1 15 C 1 16.651 2.3490681 18 4 18 C 4.3223201 18 4.6284069 17.934891 4.9199219 17.839844 L 10.457031 27.068359 C 10.170848 27.474845 10 27.968062 10 28.5 C 10 29.8748 11.12521 31 12.5 31 C 13.747095 31 14.780132 30.071238 14.962891 28.873047 L 25.037109 25.515625 C 25.449884 25.816605 25.953124 26 26.5 26 C 27.87479 26 29 24.8748 29 23.5 C 29 22.943704 28.810453 22.432176 28.5 22.015625 L 29.455078 9.6035156 C 30.370789 9.0885994 31 8.1207185 31 7 C 31 5.3491 29.650932 4 28 4 C 27.134284 4 26.357302 4.3758715 25.808594 4.9667969 L 18.839844 3.9453125 C 18.372859 2.2544815 16.835947 1 15 1 z M 15 2 C 16.662777 2 18 3.3373 18 5 C 18 6.6628 16.662777 8 15 8 C 13.337223 8 12 6.6628 12 5 C 12 3.3373 13.337223 2 15 2 z M 18.998047 4.9785156 L 25.21875 5.8925781 C 25.081111 6.2360264 25 6.6086946 25 7 C 25 7.9000535 25.408807 8.7010389 26.041016 9.2519531 L 19.875 15.417969 C 19.479439 15.155095 19.007772 15 18.5 15 C 17.509241 15 16.655742 15.588652 16.251953 16.429688 L 6.9414062 15.583984 C 6.9792633 15.39441 7 15.200338 7 15 C 7 14.124925 6.6138374 13.342483 6.0117188 12.792969 L 12.021484 7.640625 C 12.755152 8.4670166 13.812384 9 15 9 C 17.203217 9 19 7.2032 19 5 C 19 4.9926553 18.998087 4.9858513 18.998047 4.9785156 z M 28 5 C 29.110492 5 30 5.8895 30 7 C 30 8.1105 29.110492 9 28 9 C 26.889508 9 26 8.1105 26 7 C 26 5.8895 26.889508 5 28 5 z M 26.917969 9.7890625 C 27.254532 9.9204133 27.618193 10 28 10 C 28.145621 10 28.285576 9.9753505 28.425781 9.9550781 L 27.556641 21.244141 C 27.234205 21.091786 26.878567 21 26.5 21 C 25.967136 21 25.475247 21.171889 25.068359 21.458984 L 20.626953 18.792969 C 20.859124 18.413878 21 17.974607 21 17.5 C 21 16.992527 20.846572 16.518465 20.583984 16.123047 L 26.917969 9.7890625 z M 4 13 C 5.1104918 13 6 13.8895 6 15 C 6 16.1105 5.1104918 17 4 17 C 2.8895082 17 2 16.1105 2 15 C 2 13.8895 2.8895082 13 4 13 z M 18.5 16 C 19.334349 16 20 16.6657 20 17.5 C 20 18.3344 19.334349 19 18.5 19 C 17.665651 19 17 18.3344 17 17.5 C 17 16.6657 17.665651 16 18.5 16 z M 6.5527344 16.552734 L 16.009766 17.412109 C 16.008703 17.441867 16 17.469995 16 17.5 C 16 18.8748 17.12521 20 18.5 20 C 19.031925 20 19.523206 19.827189 19.929688 19.541016 L 24.371094 22.207031 C 24.13977 22.585631 24 23.026333 24 23.5 C 24 23.937372 24.122695 24.342517 24.322266 24.701172 L 14.900391 27.841797 C 14.608509 26.785121 13.646095 26 12.5 26 C 12.025542 26 11.586046 26.141008 11.207031 26.373047 L 5.8085938 17.375 C 6.1047653 17.148637 6.3574473 16.871712 6.5527344 16.552734 z M 26.5 22 C 27.334349 22 28 22.6657 28 23.5 C 28 24.3344 27.334349 25 26.5 25 C 25.665651 25 25 24.3344 25 23.5 C 25 22.6657 25.665651 22 26.5 22 z M 12.5 27 C 13.334349 27 14 27.6657 14 28.5 C 14 29.3344 13.334349 30 12.5 30 C 11.665651 30 11 29.3344 11 28.5 C 11 27.6657 11.665651 27 12.5 27 z " transform="translate(0,1020.3622)" fill="#143d59"></path></g><desc>Created with Snap</desc><defs></defs></g><g><g transform="matrix(1,0,0,-1,0,0)"><path d="M83 -2L38 0L38 233Q43 308 46 366Q49 424 57 466Q65 508 83 536Q101 565 137 582Q202 614 376 614Q451 614 503 599Q555 585 580 572Q637 544 637 494Q637 444 608 403Q580 363 534 333Q489 304 432 285Q375 266 318 254Q216 234 122 234L118 10Q118 -2 83 -2ZM121 347Q121 297 164 297Q170 297 185 297Q200 298 237 300Q275 303 317 310Q359 318 401 330Q444 342 478 360Q555 402 555 467Q540 532 436 550Q405 556 380 556Q356 556 322 553Q289 551 245 538Q201 525 171 503Q141 481 138 452Q137 440 133 424Q121 373 121 347ZM1150 14Q1141 -3 1103 -3Q1066 -3 1066 24Q1066 142 1061 186Q1052 283 1023 290Q951 304 905 304Q860 304 830 276Q801 249 785 185Q770 122 763 7L686 7Q688 64 688 113Q688 162 686 229Q684 297 681 377Q676 469 676 532Q676 596 684 649Q694 668 713 668Q736 668 749 651Q762 635 763 622L758 457Q758 364 767 318Q857 378 953 378Q984 378 1019 373Q1094 334 1117 290Q1128 267 1131 241Q1134 215 1135 182Q1141 68 1150 14ZM1212 190Q1212 308 1314 380Q1395 437 1509 449Q1515 449 1537 449Q1559 449 1596 436Q1678 408 1708 337Q1720 309 1720 289Q1720 270 1719 262Q1719 137 1624 65Q1536 -1 1404 -1Q1309 -1 1260 43Q1212 87 1212 190ZM1281 166Q1281 104 1314 82Q1339 66 1398 66Q1457 66 1502 75Q1547 84 1582 106Q1657 154 1657 255Q1657 315 1625 353Q1590 394 1533 394Q1494 387 1454 379Q1415 371 1380 348Q1304 299 1281 166ZM1788 190Q1788 308 1890 380Q1971 437 2085 449Q2091 449 2113 449Q2135 449 2172 436Q2254 408 2284 337Q2296 309 2296 289Q2296 270 2295 262Q2295 137 2200 65Q2112 -1 1980 -1Q1885 -1 1836 43Q1788 87 1788 190ZM1857 166Q1857 104 1890 82Q1915 66 1974 66Q2033 66 2078 75Q2123 84 2158 106Q2233 154 2233 255Q2233 315 2201 353Q2166 394 2109 394Q2070 387 2030 379Q1991 371 1956 348Q1880 299 1857 166ZM2364 190Q2364 308 2466 380Q2547 437 2661 449Q2667 449 2689 449Q2711 449 2748 436Q2830 408 2860 337Q2872 309 2872 289Q2872 270 2871 262Q2871 137 2776 65Q2688 -1 2556 -1Q2461 -1 2412 43Q2364 87 2364 190ZM2433 166Q2433 104 2466 82Q2491 66 2550 66Q2609 66 2654 75Q2699 84 2734 106Q2809 154 2809 255Q2809 315 2777 353Q2742 394 2685 394Q2646 387 2606 379Q2567 371 2532 348Q2456 299 2433 166ZM3066 96L3068 256Q3068 294 3061 321L2906 321L2904 390L3054 390L3054 648Q3057 657 3066 666Q3080 680 3089 680Q3099 680 3106 678Q3113 676 3121 664Q3137 598 3137 465Q3137 432 3140 400Q3172 404 3204 404Q3204 404 3256 404Q3275 404 3291 406L3288 334L3142 338L3147 -7Q3129 -15 3116 -15Q3066 -15 3066 96ZM3354 190Q3354 308 3456 380Q3537 437 3651 449Q3657 449 3679 449Q3701 449 3738 436Q3820 408 3850 337Q3862 309 3862 289Q3862 270 3861 262Q3861 137 3766 65Q3678 -1 3546 -1Q3451 -1 3402 43Q3354 87 3354 190ZM3423 166Q3423 104 3456 82Q3481 66 3540 66Q3599 66 3644 75Q3689 84 3724 106Q3799 154 3799 255Q3799 315 3767 353Q3732 394 3675 394Q3636 387 3596 379Q3557 371 3522 348Q3446 299 3423 166ZM4247 258Q4357 258 4357 202Q4357 160 4296 104Q4205 21 4051 -29Q4044 -29 4035 -15Q4027 -1 4022 6Q4018 14 4016 16Q4131 54 4205 108Q4255 144 4255 167Q4255 190 4196 190Q4137 190 4023 162Q3971 164 3933 199Q3900 230 3900 261Q3900 293 3918 319Q3936 346 3966 369Q3996 392 4036 411Q4134 458 4239 458Q4270 458 4299 452Q4323 452 4327 431Q4331 410 4331 362Q4272 389 4198 389Q4106 389 4046 352Q3984 316 3982 258Q3982 230 4023 230L4096 238Q4190 258 4247 258Z" fill="#143d59" style=""></path></g></g></g></svg>